<svg width="1349" height="205" viewBox="0 0 1349 205" fill="none" xmlns="http://www.w3.org/2000/svg">
<path fill-rule="evenodd" clip-rule="evenodd" d="M-2.83398 128.436L53.522 107.181C109.878 85.9257 222.59 43.4152 335.302 26.411C448.013 9.40677 560.725 17.9089 673.437 39.1641C786.149 60.4194 898.861 94.4278 1011.57 124.185C1124.28 153.942 1237 179.449 1293.35 192.202L1349.71 204.955V0.904663H1293.35C1237 0.904663 1124.28 0.904663 1011.57 0.904663C898.861 0.904663 786.149 0.904663 673.437 0.904663C560.725 0.904663 448.013 0.904663 335.302 0.904663C222.59 0.904663 109.878 0.904663 53.522 0.904663H-2.83398V128.436Z" fill="#FFF7E1"/>
</svg>
