<svg width="89" height="13" viewBox="0 0 89 13" fill="none" xmlns="http://www.w3.org/2000/svg">
<path d="M0.567249 10.9886C-0.681333 8.78725 0.168296 5.33468 2.75128 2.75151C5.68453 -0.180742 9.74037 -0.879804 11.8111 1.19015C11.8136 1.19286 11.8156 1.19593 11.8189 1.19868C11.4045 2.40419 10.0847 4.96918 6.1287 6.35594C2.50479 7.62696 1.10686 9.64771 0.567249 10.9886ZM12.3936 1.94371C12.0797 2.67579 11.5334 3.6325 10.5921 4.5735C9.64598 5.51984 8.30125 6.44928 6.39649 7.11728C2.53063 8.47262 1.4505 10.6914 1.14913 11.7666C1.16337 11.781 1.17561 11.7958 1.18945 11.8098C3.26002 13.8798 7.31603 13.1808 10.2491 10.2481C12.8589 7.63872 13.6983 4.14138 12.3936 1.94371Z" fill="#505050"/>
<path d="M19.5672 10.9886C18.3187 8.78725 19.1683 5.33468 21.7513 2.75151C24.6845 -0.180742 28.7404 -0.879804 30.8111 1.19015C30.8136 1.19286 30.8156 1.19593 30.8189 1.19868C30.4045 2.40419 29.0847 4.96918 25.1287 6.35594C21.5048 7.62696 20.1069 9.64771 19.5672 10.9886ZM31.3936 1.94371C31.0797 2.67579 30.5334 3.6325 29.5921 4.5735C28.646 5.51984 27.3012 6.44928 25.3965 7.11728C21.5306 8.47262 20.4505 10.6914 20.1491 11.7666C20.1634 11.781 20.1756 11.7958 20.1894 11.8098C22.26 13.8798 26.316 13.1808 29.2491 10.2481C31.8589 7.63872 32.6983 4.14138 31.3936 1.94371Z" fill="#505050"/>
<path d="M38.5672 10.9886C37.3187 8.78725 38.1683 5.33468 40.7513 2.75151C43.6845 -0.180742 47.7404 -0.879804 49.8111 1.19015C49.8136 1.19286 49.8156 1.19593 49.8189 1.19868C49.4045 2.40419 48.0847 4.96918 44.1287 6.35594C40.5048 7.62696 39.1069 9.64771 38.5672 10.9886ZM50.3936 1.94371C50.0797 2.67579 49.5334 3.6325 48.5921 4.5735C47.646 5.51984 46.3012 6.44928 44.3965 7.11728C40.5306 8.47262 39.4505 10.6914 39.1491 11.7666C39.1634 11.781 39.1756 11.7958 39.1894 11.8098C41.26 13.8798 45.316 13.1808 48.2491 10.2481C50.8589 7.63872 51.6983 4.14138 50.3936 1.94371Z" fill="#505050"/>
<path d="M57.5672 10.9886C56.3187 8.78725 57.1683 5.33468 59.7513 2.75151C62.6845 -0.180742 66.7404 -0.879804 68.8111 1.19015C68.8136 1.19286 68.8156 1.19593 68.8189 1.19868C68.4045 2.40419 67.0847 4.96918 63.1287 6.35594C59.5048 7.62696 58.1069 9.64771 57.5672 10.9886ZM69.3936 1.94371C69.0797 2.67579 68.5334 3.6325 67.5921 4.5735C66.646 5.51984 65.3012 6.44928 63.3965 7.11728C59.5306 8.47262 58.4505 10.6914 58.1491 11.7666C58.1634 11.781 58.1756 11.7958 58.1894 11.8098C60.26 13.8798 64.316 13.1808 67.2491 10.2481C69.8589 7.63872 70.6983 4.14138 69.3936 1.94371Z" fill="#505050"/>
<path d="M76.5672 10.9886C75.3187 8.78725 76.1683 5.33468 78.7513 2.75151C81.6845 -0.180742 85.7404 -0.879804 87.8111 1.19015C87.8136 1.19286 87.8156 1.19593 87.8189 1.19868C87.4045 2.40419 86.0847 4.96918 82.1287 6.35594C78.5048 7.62696 77.1069 9.64771 76.5672 10.9886ZM88.3936 1.94371C88.0797 2.67579 87.5334 3.6325 86.5921 4.5735C85.646 5.51984 84.3012 6.44928 82.3965 7.11728C78.5306 8.47262 77.4505 10.6914 77.1491 11.7666C77.1634 11.781 77.1756 11.7958 77.1894 11.8098C79.26 13.8798 83.316 13.1808 86.2491 10.2481C88.8589 7.63872 89.6983 4.14138 88.3936 1.94371Z" fill="#505050"/>
</svg>
