<svg width="94" height="18" viewBox="0 0 94 18" fill="none" xmlns="http://www.w3.org/2000/svg">
<path d="M9 0L11.0206 6.21885H17.5595L12.2694 10.0623L14.2901 16.2812L9 12.4377L3.70993 16.2812L5.73056 10.0623L0.440492 6.21885H6.97937L9 0Z" fill="#F9B300"/>
<path d="M28 0L30.0206 6.21885H36.5595L31.2694 10.0623L33.2901 16.2812L28 12.4377L22.7099 16.2812L24.7306 10.0623L19.4405 6.21885H25.9794L28 0Z" fill="#F9B300"/>
<path d="M47 0L49.0206 6.21885H55.5595L50.2694 10.0623L52.2901 16.2812L47 12.4377L41.7099 16.2812L43.7306 10.0623L38.4405 6.21885H44.9794L47 0Z" fill="#F9B300"/>
<path d="M66 0L68.0206 6.21885H74.5595L69.2694 10.0623L71.2901 16.2812L66 12.4377L60.7099 16.2812L62.7306 10.0623L57.4405 6.21885H63.9794L66 0Z" fill="#F9B300"/>
<path d="M85 0L87.0206 6.21885H93.5595L88.2694 10.0623L90.2901 16.2812L85 12.4377L79.7099 16.2812L81.7306 10.0623L76.4405 6.21885H82.9794L85 0Z" fill="#F0F0F0"/>
</svg>
