<svg width="1349" height="206" viewBox="0 0 1349 206" fill="none" xmlns="http://www.w3.org/2000/svg">
<path fill-rule="evenodd" clip-rule="evenodd" d="M0 128.511L56.2083 107.256C112.417 86.0004 224.833 43.4899 337.25 26.4857C449.667 9.48148 562.083 17.9836 674.5 39.2388C786.917 60.4941 899.333 94.5025 1011.75 124.26C1124.17 154.017 1236.58 179.523 1292.79 192.277L1349 205.03V0.97937H1292.79C1236.58 0.97937 1124.17 0.97937 1011.75 0.97937C899.333 0.97937 786.917 0.97937 674.5 0.97937C562.083 0.97937 449.667 0.97937 337.25 0.97937C224.833 0.97937 112.417 0.97937 56.2083 0.97937H0V128.511Z" fill="#F9B300"/>
</svg>
