<svg width="67" height="67" viewBox="0 0 67 67" fill="none" xmlns="http://www.w3.org/2000/svg">
<path d="M46.3419 45.7833H44.1086V43.55H47.4586C48.0753 43.55 48.5753 43.05 48.5753 42.4333V37.9667C48.5753 37.35 48.0753 36.85 47.4586 36.85H45.2253V11.1667C45.2253 10.55 44.7253 10.05 44.1086 10.05H40.7586V2.23333H45.2253V0H20.6586V2.23333H25.1253V10.05H21.7753C21.1586 10.05 20.6586 10.55 20.6586 11.1667V36.85H18.4253C17.8086 36.85 17.3086 37.35 17.3086 37.9667V42.4333C17.3086 43.05 17.8086 43.55 18.4253 43.55H21.7753V64.7667C21.7753 66.0002 22.7751 67 24.0086 67H41.8753C43.1088 67 44.1086 66.0002 44.1086 64.7667V61.4167H46.3419C48.1921 61.4167 49.6919 59.9168 49.6919 58.0667V49.1333C49.6919 47.2832 48.1921 45.7833 46.3419 45.7833ZM27.3586 2.23333H38.5253V10.05H27.3586V2.23333ZM27.3586 12.2833H38.5253V32.3833H27.3586V12.2833ZM41.8753 64.7667H24.0086V54.7167H41.8753V64.7667ZM41.8753 52.4833H24.0086V43.55H41.8753V52.4833ZM19.5419 41.3167V39.0833H21.7753C22.3919 39.0833 22.8919 38.5833 22.8919 37.9667V12.2833H25.1253V33.5C25.1253 34.1167 25.6252 34.6167 26.2419 34.6167H39.6419C40.2586 34.6167 40.7586 34.1167 40.7586 33.5V12.2833H42.9919V37.9667C42.9919 38.5833 43.4919 39.0833 44.1086 39.0833H46.3419V41.3167H19.5419ZM47.4586 58.0667C47.4586 58.6833 46.9586 59.1833 46.3419 59.1833H44.1086V48.0167H46.3419C46.9586 48.0167 47.4586 48.5167 47.4586 49.1333V58.0667Z" fill="#505050"/>
<path d="M34.0585 14.5166H31.8252V16.7499H34.0585V14.5166Z" fill="#505050"/>
<path d="M34.0585 18.9834H31.8252V21.2167H34.0585V18.9834Z" fill="#505050"/>
<path d="M34.0585 23.45H31.8252V25.6833H34.0585V23.45Z" fill="#505050"/>
<path d="M34.0585 27.9167H31.8252V30.1501H34.0585V27.9167Z" fill="#505050"/>
</svg>
