<svg width="56" height="56" viewBox="0 0 56 56" fill="none" xmlns="http://www.w3.org/2000/svg">
<g clip-path="url(#clip0_517_8668)">
<path d="M45.3964 46.6225H44.1001V15.4172C44.1001 15.3645 44.0963 15.3125 44.0891 15.2617C45.1819 13.9425 45.8394 12.2503 45.8394 10.4074V2.16814C46.3454 2.07211 46.728 1.62761 46.728 1.09375C46.728 0.489781 46.2382 0 45.6342 0H10.3659C9.76196 0 9.27218 0.489781 9.27218 1.09375C9.27218 1.62761 9.65477 2.07211 10.1607 2.16814V10.4074C10.1607 12.2441 10.8138 13.9311 11.9 15.2484V15.2497V46.6225H10.6038C8.76577 46.6225 7.27051 48.1179 7.27051 49.9559V54.9062C7.27051 55.5102 7.76029 56 8.36426 56H47.6359C48.2399 56 48.7296 55.5102 48.7296 54.9062V49.9558C48.7296 48.1179 47.2344 46.6225 45.3964 46.6225ZM43.652 2.1875V10.4074C43.652 13.4034 41.2147 15.8407 38.2188 15.8407H17.7814C14.7856 15.8407 12.3482 13.4034 12.3482 10.4074V2.1875H43.652ZM26.3572 22.4249H29.6432V24.8013H26.3572V22.4249ZM22.5537 20.2374V18.0282H33.4466V20.2374H22.5537ZM14.0876 17.0716C15.1825 17.6809 16.4421 18.0282 17.7814 18.0282H20.3662V21.3312C20.3662 21.9352 20.856 22.4249 21.4599 22.4249H24.1696V25.8951C24.1696 26.499 24.6594 26.9888 25.2634 26.9888H30.7368C31.3408 26.9888 31.8306 26.499 31.8306 25.8951V22.4249H34.5402C35.1442 22.4249 35.634 21.9352 35.634 21.3312V18.0282H38.2187C39.558 18.0282 40.8178 17.6808 41.9125 17.0716V46.6225H34.4295C34.811 45.9706 35.0299 45.2126 35.0299 44.4043V43.836H37.9218C38.5257 43.836 39.0155 43.3462 39.0155 42.7422V37.403C39.0155 36.799 38.5257 36.3092 37.9218 36.3092H35.0299V35.4389C35.0299 34.835 34.5401 34.3452 33.9361 34.3452H22.0961C21.4921 34.3452 21.0023 34.835 21.0023 35.4389V44.4043C21.0023 45.2126 21.2212 45.9706 21.6027 46.6225H14.0876V17.0716ZM23.1898 44.4042V36.5326H32.8426V44.4042C32.8426 45.6274 31.8474 46.6224 30.6243 46.6224H25.4083C24.1849 46.6225 23.1898 45.6274 23.1898 44.4042ZM35.03 38.4967H36.8281V41.6484H35.03V38.4967ZM46.5421 53.8125H9.45812V49.9558C9.45812 49.3241 9.97207 48.8099 10.6039 48.8099H45.3966C46.0283 48.8099 46.5424 49.324 46.5424 49.9558V53.8125H46.5421Z" fill="#505050"/>
<path d="M18.0026 13.1502C19.8106 13.1502 21.2815 11.6793 21.2815 9.87124C21.2815 8.06316 19.8107 6.59229 18.0026 6.59229C16.1945 6.59229 14.7236 8.06316 14.7236 9.87124C14.7236 11.6793 16.1945 13.1502 18.0026 13.1502ZM18.0026 8.7799C18.6044 8.7799 19.094 9.26957 19.094 9.87135C19.094 10.4731 18.6044 10.9628 18.0026 10.9628C17.4008 10.9628 16.9111 10.4731 16.9111 9.87135C16.9111 9.26957 17.4008 8.7799 18.0026 8.7799Z" fill="#505050"/>
<path d="M33.8711 9.0105H40.1823C40.7862 9.0105 41.276 8.52072 41.276 7.91675C41.276 7.31278 40.7862 6.823 40.1823 6.823H33.8711C33.2671 6.823 32.7773 7.31278 32.7773 7.91675C32.7773 8.52072 33.267 9.0105 33.8711 9.0105Z" fill="#505050"/>
<path d="M33.8711 12.9199H40.1823C40.7862 12.9199 41.276 12.4301 41.276 11.8262C41.276 11.2222 40.7862 10.7324 40.1823 10.7324H33.8711C33.2671 10.7324 32.7773 11.2222 32.7773 11.8262C32.7773 12.4301 33.267 12.9199 33.8711 12.9199Z" fill="#505050"/>
</g>
<defs>
<clipPath id="clip0_517_8668">
<rect width="56" height="56" fill="white"/>
</clipPath>
</defs>
</svg>
