<svg width="47" height="46" viewBox="0 0 47 46" fill="none" xmlns="http://www.w3.org/2000/svg">
<g clip-path="url(#clip0_517_8564)">
<path d="M46.082 18.5526H38.5547V16.6509C38.5547 16.1547 38.1436 15.7524 37.6367 15.7524H17.8086C17.3017 15.7524 16.8906 16.1547 16.8906 16.6509C16.8906 17.1471 17.3017 17.5493 17.8086 17.5493H36.7188V24.4373C36.7188 30.4881 33.418 36.1118 28.0882 39.1717H10.4665C5.13668 36.1118 1.83594 30.4881 1.83594 24.4374V17.5494H7.98633C8.49323 17.5494 8.9043 17.1472 8.9043 16.651C8.9043 16.1548 8.49323 15.7525 7.98633 15.7525H0.917969C0.411066 15.7525 0 16.1548 0 16.651V24.4374C0 27.8335 0.932656 31.1634 2.69718 34.0671C3.88714 36.0254 5.43116 37.7547 7.23928 39.1717H0.917969C0.411066 39.1717 0 39.574 0 40.0702C0 43.3399 2.71783 45.9999 6.05859 45.9999H34.6992C38.04 45.9999 40.7578 43.3399 40.7578 40.0702C40.7578 39.574 40.3467 39.1717 39.8398 39.1717H31.3154C32.9796 37.8676 34.4192 36.2983 35.5658 34.5298H38.1569C43.033 34.5298 47 30.6472 47 25.8749V19.451C47 18.9548 46.589 18.5526 46.082 18.5526ZM38.8214 40.9686C38.4011 42.8169 36.7124 44.203 34.6992 44.203H6.05859C4.0454 44.203 2.35679 42.8169 1.93646 40.9686H10.2206H28.3341H38.8214ZM38.5547 24.4374V23.9432H41.4922V25.8749C41.4922 27.6748 39.996 29.1392 38.1569 29.1392H37.9485C38.3492 27.6113 38.5547 26.0316 38.5547 24.4374ZM45.1641 25.8749C45.1641 29.6564 42.0207 32.7329 38.1569 32.7329H36.5945C36.8877 32.147 37.1495 31.5472 37.3782 30.936H38.1569C41.0084 30.936 43.3281 28.6656 43.3281 25.8749V23.0448C43.3281 22.5486 42.9171 22.1464 42.4102 22.1464H38.5547V20.3495H45.1641V25.8749Z" fill="#505050"/>
<path d="M20.1539 4.97225L19.6763 4.3853C18.9751 3.52388 18.9741 2.31971 19.6738 1.45703C19.989 1.06836 19.9226 0.503245 19.5255 0.194812C19.1283 -0.113802 18.551 -0.0486651 18.2357 0.339999C17.0018 1.86159 17.0036 3.98541 18.2402 5.50485L18.7178 6.0918C19.6341 7.21754 19.6354 8.79115 18.7211 9.9186L18.2317 10.5222C17.9165 10.9108 17.9829 11.476 18.38 11.7844C18.5488 11.9155 18.7502 11.9792 18.9501 11.9792C19.2205 11.9792 19.4885 11.8627 19.6698 11.6392L20.1592 11.0356C21.6078 9.24936 21.6057 6.75601 20.1539 4.97225Z" fill="#505050"/>
<path d="M25.2418 6.99203L24.7642 6.40517C24.063 5.54366 24.062 4.33948 24.7617 3.4768C25.0769 3.08814 25.0105 2.52302 24.6134 2.21459C24.2162 1.90597 23.6388 1.97111 23.3236 2.35977C22.0897 3.88137 22.0915 6.00518 23.3281 7.52471L23.8057 8.11166C24.7219 9.23749 24.7232 10.8112 23.8089 11.9386L23.3196 12.542C23.0043 12.9307 23.0708 13.4958 23.4679 13.8042C23.6367 13.9353 23.838 13.9989 24.038 13.9989C24.3084 13.9989 24.5765 13.8824 24.7577 13.659L25.2469 13.0555C26.6956 11.2693 26.6935 8.77597 25.2418 6.99203Z" fill="#505050"/>
<path d="M15.066 6.99227L14.5884 6.40541C13.8873 5.54399 13.8863 4.33972 14.5858 3.47704C14.9011 3.08838 14.8346 2.52326 14.4375 2.21474C14.0403 1.90621 13.463 1.97144 13.1478 2.35992C11.9139 3.88152 11.9157 6.00542 13.1523 7.52486L13.63 8.11181C14.5461 9.23764 14.5475 10.8113 13.6333 11.9386L13.1438 12.5421C12.8286 12.9308 12.8949 13.4959 13.2921 13.8044C13.4609 13.9355 13.6621 13.9992 13.8621 13.9992C14.1325 13.9992 14.4005 13.8827 14.5817 13.6593L15.0713 13.0557C16.5198 11.2695 16.5177 8.77621 15.066 6.99227Z" fill="#505050"/>
<path d="M13.7955 16.0154C13.6247 15.8483 13.3879 15.7522 13.1465 15.7522C12.9051 15.7522 12.6682 15.8483 12.4975 16.0154C12.3268 16.1834 12.2285 16.4143 12.2285 16.6506C12.2285 16.8869 12.3267 17.1187 12.4975 17.2867C12.6682 17.4538 12.9051 17.5491 13.1465 17.5491C13.3879 17.5491 13.6247 17.4538 13.7955 17.2867C13.9671 17.1187 14.0645 16.8878 14.0645 16.6506C14.0645 16.4143 13.9671 16.1825 13.7955 16.0154Z" fill="#505050"/>
<path d="M33.2308 23.5391C32.7239 23.5391 32.3128 23.9413 32.3128 24.4375C32.3128 27.7724 30.9307 31.0498 28.5208 33.4293C28.1639 33.7817 28.1666 34.3506 28.5266 34.6999C28.7056 34.8736 28.9393 34.9603 29.1729 34.9603C29.4092 34.9602 29.6455 34.8714 29.8249 34.6942C32.5728 31.9809 34.1487 28.2425 34.1487 24.4375C34.1487 23.9413 33.7377 23.5391 33.2308 23.5391Z" fill="#505050"/>
<path d="M26.9779 35.8678C26.7287 35.4356 26.1689 35.283 25.7273 35.5267L25.7064 35.5383C25.2648 35.7821 25.1088 36.3301 25.3578 36.7622C25.5266 37.0549 25.8377 37.2195 26.1582 37.2195C26.311 37.2195 26.4659 37.182 26.6084 37.1034L26.6293 37.0918C27.071 36.8479 27.2269 36.3 26.9779 35.8678Z" fill="#505050"/>
</g>
<defs>
<clipPath id="clip0_517_8564">
<rect width="47" height="46" fill="white"/>
</clipPath>
</defs>
</svg>
