<svg width="63" height="63" viewBox="0 0 63 63" fill="none" xmlns="http://www.w3.org/2000/svg">
<g clip-path="url(#clip0_517_8682)">
<path d="M22.3121 18.3748C21.8291 18.3748 21.3671 18.1097 21.1361 17.6503L13.2611 1.90034C12.9382 1.25197 13.2007 0.461843 13.8491 0.138968C14.5001 -0.186532 15.285 0.075968 15.6105 0.726968L23.4855 16.477C23.811 17.1253 23.5459 17.9128 22.8975 18.2383C22.7111 18.3302 22.5116 18.3748 22.3121 18.3748Z" fill="#505050"/>
<path d="M40.6874 18.3748C40.4906 18.3748 40.2911 18.3302 40.1021 18.2357C39.4537 17.9102 39.1912 17.1227 39.5141 16.4743L47.389 0.724351C47.7145 0.0733511 48.5021 -0.186524 49.1504 0.136351C49.7988 0.459226 50.0613 1.24935 49.7384 1.89773L41.8634 17.6477C41.6298 18.1097 41.1678 18.3748 40.6874 18.3748Z" fill="#505050"/>
<path d="M51.1875 2.625H11.8125C11.088 2.625 10.5 2.037 10.5 1.3125C10.5 0.588 11.088 0 11.8125 0H51.1875C51.912 0 52.5 0.588 52.5 1.3125C52.5 2.037 51.912 2.625 51.1875 2.625Z" fill="#505050"/>
<path d="M45.9375 26.25H17.0625C14.8916 26.25 13.125 24.4834 13.125 22.3125V19.6875C13.125 17.5166 14.8916 15.75 17.0625 15.75H45.9375C48.1084 15.75 49.875 17.5166 49.875 19.6875V22.3125C49.875 24.4834 48.1084 26.25 45.9375 26.25ZM17.0625 18.375C16.338 18.375 15.75 18.963 15.75 19.6875V22.3125C15.75 23.037 16.338 23.625 17.0625 23.625H45.9375C46.662 23.625 47.25 23.037 47.25 22.3125V19.6875C47.25 18.963 46.662 18.375 45.9375 18.375H17.0625Z" fill="#505050"/>
<path d="M45.9375 63.0001H17.0625C11.9963 63.0001 7.875 58.8789 7.875 53.8126C7.875 52.5631 8.12175 51.3504 8.60738 50.2111L18.4616 24.4677C18.7215 23.7905 19.4854 23.4571 20.1574 23.7117C20.8346 23.9716 21.1733 24.7302 20.9134 25.4075L11.0407 51.1981C10.6759 52.0539 10.5 52.9201 10.5 53.8126C10.5 57.4299 13.4453 60.3751 17.0625 60.3751H45.9375C49.5547 60.3751 52.5 57.4299 52.5 53.8126C52.5 52.9201 52.3241 52.0539 51.9776 51.2427L42.0866 25.4075C41.8268 24.7302 42.1654 23.9716 42.8426 23.7117C43.5172 23.4545 44.2759 23.7879 44.5384 24.4677L54.411 50.2584C54.8783 51.353 55.125 52.5631 55.125 53.8126C55.125 58.8789 51.0037 63.0001 45.9375 63.0001Z" fill="#505050"/>
<path d="M39.6952 43.3125C37.1149 43.3125 35.7656 42.0184 34.6815 40.9789C33.7129 40.047 33.012 39.375 31.4869 39.375C29.9644 39.375 29.2661 40.047 28.2975 40.9789C27.2134 42.0184 25.8667 43.3125 23.289 43.3125C20.7112 43.3125 19.3646 42.0184 18.2831 40.9762C17.3145 40.047 16.6136 39.375 15.0938 39.375C14.3692 39.375 13.7812 38.787 13.7812 38.0625C13.7812 37.338 14.3692 36.75 15.0938 36.75C17.6715 36.75 19.0181 38.0441 20.0996 39.0863C21.0683 40.0155 21.7691 40.6875 23.289 40.6875C24.8089 40.6875 25.5097 40.0155 26.4784 39.0863C27.5599 38.0468 28.9091 36.75 31.4869 36.75C34.0672 36.75 35.4165 38.0441 36.5006 39.0836C37.4719 40.0129 38.1727 40.6875 39.6952 40.6875C41.2204 40.6875 41.9213 40.0155 42.8925 39.0836C43.9766 38.0441 45.3259 36.75 47.9062 36.75C48.6307 36.75 49.2188 37.338 49.2188 38.0625C49.2188 38.787 48.6307 39.375 47.9062 39.375C46.3811 39.375 45.6802 40.047 44.709 40.9789C43.6249 42.0184 42.2756 43.3125 39.6952 43.3125Z" fill="#505050"/>
</g>
<defs>
<clipPath id="clip0_517_8682">
<rect width="63" height="63" fill="white"/>
</clipPath>
</defs>
</svg>
