<svg width="57" height="57" viewBox="0 0 57 57" fill="none" xmlns="http://www.w3.org/2000/svg">
<g clip-path="url(#clip0_517_8674)">
<path d="M2.39747 24.7H15.6972C16.2221 24.7 16.6474 24.2747 16.6474 23.7498V22.8H18.5474V23.7498C18.5474 24.2747 18.9727 24.7 19.4972 24.7H20.6552L21.4258 27.7806C21.5319 28.2033 21.9116 28.4999 22.3473 28.4999H26.1473C26.583 28.4999 26.9631 28.2033 27.0688 27.7806L27.8394 24.7H28.9974C29.5219 24.7 29.9472 24.2747 29.9472 23.7498V19.0001C30.309 19.0018 30.6408 18.7983 30.8026 18.4748L32.4347 15.1997H36.5973V47.5H30.2616C31.8445 46.4502 32.7965 44.6777 32.7974 42.7786V36.0998C32.7974 35.5753 32.3721 35.15 31.8472 35.15H16.6474C16.1225 35.15 15.6972 35.5753 15.6972 36.0998H10.9471C10.4226 36.0998 9.99733 36.5251 9.99733 37.05V42.7499C9.99733 43.2748 10.4226 43.7001 10.9471 43.7001H15.779C16.0356 45.2517 16.924 46.6277 18.233 47.5H10.9475C10.4226 47.5 9.99733 47.9253 9.99733 48.4498V56.0501C9.99733 56.5746 10.4226 56.9999 10.9475 56.9999H54.6472C55.1721 56.9999 55.5974 56.5746 55.5974 56.0501V0.950201C55.5974 0.425307 55.1721 0 54.6472 0H10.9475C10.4226 0 9.99733 0.425307 9.99733 0.950201V14.25C9.99733 14.7749 10.4226 15.2002 10.9475 15.2002H16.0603L17.6972 18.4748C17.8581 18.7966 18.1873 19.0001 18.5474 19.0001V20.9001H16.6474V19.9499C16.6474 19.4254 16.2221 19.0001 15.6972 19.0001H2.39747C1.87257 19.0001 1.44727 19.4254 1.44727 19.9499V23.7498C1.44727 24.2747 1.87257 24.7 2.39747 24.7ZM11.8973 37.9998H15.6972V41.8001H11.8973V37.9998ZM17.5972 42.7499V37.05H30.8974V42.7786C30.8948 44.8603 29.2079 46.5472 27.1257 46.5498H21.3689C19.2871 46.5472 17.5998 44.8603 17.5976 42.7786V42.7499H17.5972ZM25.4054 26.6H23.0892L22.6143 24.7H25.8802L25.4054 26.6ZM38.4973 15.1997H53.6974V47.5H38.4973V15.1997ZM53.6974 55.0999H11.8973V49.4H53.6974V55.0999ZM11.8973 1.89997H53.6974V13.2998H11.8973V1.89997ZM18.1843 15.1997H30.3103L29.3601 17.1001H19.1345L18.1843 15.1997ZM28.0472 19.0001V22.8H20.4474V19.0001H28.0472ZM3.34723 20.9001H14.7475V22.8H3.34723V20.9001Z" fill="#505050"/>
<path d="M24.2472 11.3999C26.3459 11.3999 28.0471 9.6987 28.0471 7.59999C28.0471 5.50128 26.3459 3.80005 24.2472 3.80005C22.1485 3.80005 20.4473 5.50128 20.4473 7.59999C20.4473 9.6987 22.1485 11.3999 24.2472 11.3999ZM24.2472 5.70002C25.2966 5.70002 26.1472 6.55064 26.1472 7.59999C26.1472 8.64935 25.2966 9.49996 24.2472 9.49996C23.1979 9.49996 22.3472 8.64935 22.3472 7.59999C22.3472 6.55064 23.1979 5.70002 24.2472 5.70002Z" fill="#505050"/>
<path d="M29.9473 6.65015H31.8472V8.55012H29.9473V6.65015Z" fill="#505050"/>
<path d="M33.748 6.65015H35.648V8.55012H33.748V6.65015Z" fill="#505050"/>
<path d="M45.1475 37.05H47.0474V44.6499H45.1475V37.05Z" fill="#505050"/>
<path d="M41.3477 37.05H43.2476V44.6499H41.3477V37.05Z" fill="#505050"/>
<path d="M48.9473 37.05H50.8472V44.6499H48.9473V37.05Z" fill="#505050"/>
</g>
<defs>
<clipPath id="clip0_517_8674">
<rect width="57" height="57" fill="white"/>
</clipPath>
</defs>
</svg>
