<svg width="41" height="18" viewBox="0 0 41 18" fill="none" xmlns="http://www.w3.org/2000/svg">
<path d="M0.741787 14.3732C-0.890974 11.4939 0.220079 6.97785 3.59783 3.59901C7.43361 -0.236413 12.7374 -1.1508 15.4453 1.55673C15.4485 1.56028 15.4512 1.5643 15.4555 1.56789C14.9136 3.14471 13.1877 6.49977 8.01446 8.31367C3.27549 9.97618 1.44743 12.6194 0.741787 14.3732ZM16.207 2.54241C15.7965 3.49997 15.0821 4.75137 13.8512 5.98221C12.614 7.22004 10.8555 8.43576 8.36464 9.30951C3.30928 11.0823 1.8968 13.9845 1.50271 15.3909C1.52132 15.4097 1.53733 15.4292 1.55543 15.4474C4.2631 18.155 9.56712 17.2407 13.4026 13.4047C16.8155 9.99156 17.9131 5.41698 16.207 2.54241Z" fill="#505050"/>
<path d="M24.7418 14.3732C23.109 11.4939 24.2201 6.97785 27.5978 3.59901C31.4336 -0.236413 36.7374 -1.1508 39.4453 1.55673C39.4485 1.56028 39.4512 1.5643 39.4555 1.56789C38.9136 3.14471 37.1877 6.49977 32.0145 8.31367C27.2755 9.97618 25.4474 12.6194 24.7418 14.3732ZM40.207 2.54241C39.7965 3.49997 39.0821 4.75137 37.8512 5.98221C36.614 7.22004 34.8555 8.43576 32.3646 9.30951C27.3093 11.0823 25.8968 13.9845 25.5027 15.3909C25.5213 15.4097 25.5373 15.4292 25.5554 15.4474C28.2631 18.155 33.5671 17.2407 37.4026 13.4047C40.8155 9.99156 41.9131 5.41698 40.207 2.54241Z" fill="#505050"/>
</svg>
