<svg width="45" height="53" viewBox="0 0 45 53" fill="none" xmlns="http://www.w3.org/2000/svg">
<path d="M37.9411 16.7833H36.7217C36.0849 16.217 35.2635 15.9029 34.4117 15.9H32.647V12.3667C32.881 12.3667 33.1055 12.2736 33.2709 12.1079C33.4364 11.9423 33.5294 11.7176 33.5294 11.4833V7.95C33.5294 7.71573 33.4364 7.49105 33.2709 7.32539C33.1055 7.15973 32.881 7.06667 32.647 7.06667H21.1764V5.3H22.0587C22.7608 5.3 23.4341 5.0208 23.9305 4.52383C24.4269 4.02686 24.7058 3.35282 24.7058 2.65C24.7058 1.94718 24.4269 1.27314 23.9305 0.776167C23.4341 0.279196 22.7608 0 22.0587 0H14.9999C14.2978 0 13.6245 0.279196 13.1281 0.776167C12.6317 1.27314 12.3528 1.94718 12.3528 2.65C12.3528 3.35282 12.6317 4.02686 13.1281 4.52383C13.6245 5.0208 14.2978 5.3 14.9999 5.3H15.8822V7.06667H4.4116C4.17758 7.06667 3.95315 7.15973 3.78767 7.32539C3.6222 7.49105 3.52924 7.71573 3.52924 7.95V10.6H0.882169C0.707682 10.6 0.537125 10.6519 0.392056 10.7489C0.246988 10.846 0.133923 10.9839 0.0671548 11.1453C0.000386845 11.3067 -0.0170859 11.4843 0.0169445 11.6556C0.0509748 11.8269 0.134981 11.9843 0.258343 12.1079L4.4116 16.2657V47.7C4.17758 47.7 3.95315 47.7931 3.78767 47.9587C3.6222 48.1244 3.52924 48.3491 3.52924 48.5833V52.1167C3.52924 52.3509 3.6222 52.5756 3.78767 52.7413C3.95315 52.9069 4.17758 53 4.4116 53H32.647C32.881 53 33.1055 52.9069 33.2709 52.7413C33.4364 52.5756 33.5294 52.3509 33.5294 52.1167V48.5833C33.5294 48.3491 33.4364 48.1244 33.2709 47.9587C33.1055 47.7931 32.881 47.7 32.647 47.7V44.1667H34.4117C35.2635 44.1638 36.0849 43.8497 36.7217 43.2833H37.9411C39.5443 43.2824 41.0845 42.6582 42.2368 41.5424C43.3891 40.4265 44.0634 38.9063 44.1176 37.3023C44.3945 37.0544 44.6161 36.751 44.7681 36.4118C44.9201 36.0726 44.9991 35.7051 45 35.3333V24.7333C44.9991 24.3615 44.9201 23.9941 44.7681 23.6549C44.6161 23.3156 44.3945 23.0122 44.1176 22.7644C44.0634 21.1604 43.3891 19.6401 42.2368 18.5243C41.0845 17.4084 39.5443 16.7842 37.9411 16.7833ZM38.805 37.282C38.7633 37.4804 38.6546 37.6584 38.4973 37.7861C38.34 37.9138 38.1437 37.9834 37.9411 37.9833H36.7217C36.0849 37.417 35.2635 37.1029 34.4117 37.1H32.647V22.9667H34.4117C35.2635 22.9638 36.0849 22.6497 36.7217 22.0833H37.9411C38.1437 22.0832 38.34 22.1529 38.4973 22.2806C38.6546 22.4083 38.7633 22.5863 38.805 22.7847C38.5341 23.0319 38.3174 23.3328 38.1687 23.6682C38.02 24.0037 37.9425 24.3664 37.9411 24.7333V35.3333C37.9425 35.7003 38.02 36.063 38.1687 36.3984C38.3174 36.7339 38.5341 37.0347 38.805 37.282ZM17.6469 12.3667V15.0167H6.17631V12.3667H17.6469ZM30.8823 22.0833H6.17631V16.7833H30.8823V22.0833ZM6.17631 23.85H17.6469V36.2167H6.17631V23.85ZM19.4117 23.85H30.8823V36.2167H19.4117V23.85ZM34.4117 17.6667C34.8798 17.6667 35.3286 17.8528 35.6596 18.1841C35.9905 18.5154 36.1764 18.9648 36.1764 19.4333C36.1764 19.9019 35.9905 20.3512 35.6596 20.6826C35.3286 21.0139 34.8798 21.2 34.4117 21.2H32.647V17.6667H34.4117ZM30.8823 15.0167H19.4117V12.3667H30.8823V15.0167ZM14.1175 2.65C14.1175 2.41573 14.2105 2.19105 14.376 2.02539C14.5414 1.85973 14.7659 1.76667 14.9999 1.76667H22.0587C22.2927 1.76667 22.5172 1.85973 22.6826 2.02539C22.8481 2.19105 22.9411 2.41573 22.9411 2.65C22.9411 2.88427 22.8481 3.10895 22.6826 3.27461C22.5172 3.44027 22.2927 3.53333 22.0587 3.53333H14.9999C14.7659 3.53333 14.5414 3.44027 14.376 3.27461C14.2105 3.10895 14.1175 2.88427 14.1175 2.65ZM17.6469 5.3H19.4117V7.06667H17.6469V5.3ZM5.29395 8.83333H31.7647V10.6H5.29395V8.83333ZM4.4116 12.3667V13.7676L3.01218 12.3667H4.4116ZM31.7647 51.2333H5.29395V49.4667H31.7647V51.2333ZM6.17631 47.7V37.9833H30.8823V47.7H6.17631ZM34.4117 42.4H32.647V38.8667H34.4117C34.8798 38.8667 35.3286 39.0528 35.6596 39.3841C35.9905 39.7154 36.1764 40.1648 36.1764 40.6333C36.1764 41.1019 35.9905 41.5512 35.6596 41.8826C35.3286 42.2139 34.8798 42.4 34.4117 42.4ZM43.2353 35.3333C43.2351 35.4874 43.1942 35.6387 43.1167 35.7718C43.0392 35.9049 42.9279 36.0151 42.7941 36.0912C42.6601 36.1687 42.5488 36.2801 42.4714 36.4142C42.3939 36.5483 42.3531 36.7004 42.3529 36.8553V37.1C42.3515 38.2709 41.8863 39.3935 41.0592 40.2215C40.2321 41.0495 39.1108 41.5153 37.9411 41.5167H37.8159C37.9829 40.9397 37.9829 40.327 37.8159 39.75H37.9411C38.6432 39.75 39.3165 39.4708 39.8129 38.9738C40.3093 38.4769 40.5882 37.8028 40.5882 37.1V36.8553C40.5881 36.7004 40.5472 36.5483 40.4698 36.4142C40.3923 36.2801 40.281 36.1687 40.147 36.0912C40.0132 36.0151 39.9019 35.9049 39.8244 35.7718C39.7469 35.6387 39.706 35.4874 39.7059 35.3333V24.7333C39.706 24.5793 39.7469 24.428 39.8244 24.2949C39.9019 24.1617 40.0132 24.0515 40.147 23.9754C40.281 23.898 40.3923 23.7866 40.4698 23.6525C40.5472 23.5184 40.5881 23.3663 40.5882 23.2113V22.9667C40.5882 22.2638 40.3093 21.5898 39.8129 21.0928C39.3165 20.5959 38.6432 20.3167 37.9411 20.3167H37.8159C37.9829 19.7397 37.9829 19.127 37.8159 18.55H37.9411C39.1108 18.5514 40.2321 19.0172 41.0592 19.8452C41.8863 20.6731 42.3515 21.7957 42.3529 22.9667V23.2113C42.3531 23.3663 42.3939 23.5184 42.4714 23.6525C42.5488 23.7866 42.6601 23.898 42.7941 23.9754C42.9279 24.0515 43.0392 24.1617 43.1167 24.2949C43.1942 24.428 43.2351 24.5793 43.2353 24.7333V35.3333Z" fill="#505050"/>
</svg>
