<svg width="52" height="59" viewBox="0 0 52 59" fill="none" xmlns="http://www.w3.org/2000/svg">
<path d="M51.013 15.6622L47.0962 10.6097C46.5718 9.9332 45.7829 9.54521 44.9317 9.54521H41.6972C41.392 8.97722 40.7958 8.59061 40.1118 8.59061H36.4674L25.831 5.01293C25.5808 4.92869 25.3249 4.86704 25.0656 4.82705L25.5911 2.17551C25.6974 1.63909 25.5613 1.08885 25.2176 0.665709C24.8741 0.242684 24.3661 0 23.8239 0H20.4563C19.9142 0 19.4063 0.242568 19.0626 0.665594C18.7187 1.08862 18.5826 1.63886 18.6889 2.17539L19.2144 4.82705C18.9552 4.86704 18.6993 4.92869 18.4491 5.01293L7.81277 8.59072H4.16824C3.30769 8.59072 2.48586 9.00545 1.96971 9.70008L0.267117 11.9909C-0.0369744 12.4 -0.0850487 12.9384 0.141507 13.3958C0.368177 13.8532 0.8238 14.1374 1.33058 14.1374H2.74404C2.77236 14.1374 2.7992 14.1511 2.8161 14.1742L8.66669 22.1947L9.15669 26.1503C9.21093 26.5875 9.57977 26.9075 10.0055 26.9075C10.041 26.9075 10.0767 26.9052 10.1128 26.9007C10.582 26.8414 10.915 26.4095 10.8564 25.9359L10.3469 21.8225L10.6758 10.3194H14.7629L17.2997 30.7987C17.3302 31.0446 17.3935 31.279 17.4826 31.4995H11.6246C11.5795 31.4995 11.5413 31.4656 11.5359 31.4205L11.2848 29.3931C11.2261 28.9193 10.7989 28.5833 10.3286 28.6427C9.85942 28.7019 9.52644 29.1338 9.58502 29.6074L9.83613 31.6349C9.94872 32.5431 10.7177 33.2281 11.6246 33.2281H11.8249V38.1812H11.6042C10.7048 38.1812 9.95523 38.8326 9.82174 39.7302L7.43069 55.8153C7.31181 56.6145 7.54339 57.4241 8.06593 58.0364C8.58847 58.6489 9.34762 59 10.1483 59H12.2387C12.7118 59 13.0951 58.613 13.0951 58.1357C13.0951 57.6584 12.7118 57.2715 12.2387 57.2715H10.1483C9.84218 57.2715 9.56367 57.1425 9.36383 56.9085C9.16411 56.6745 9.07915 56.3773 9.12449 56.0717L9.25672 55.1819H35.0232L35.1554 56.0717C35.2008 56.3772 35.1158 56.6743 34.916 56.9085C34.7161 57.1425 34.4376 57.2715 34.1315 57.2715H15.6646C15.1915 57.2715 14.8081 57.6584 14.8081 58.1357C14.8081 58.613 15.1915 59 15.6646 59H34.1316C34.9324 59 35.6913 58.6488 36.214 58.0365C36.7365 57.4242 36.9681 56.6145 36.8495 55.8154L34.4584 39.73C34.3249 38.8325 33.5754 38.1812 32.676 38.1812H32.4553V33.2278H32.6556C33.5625 33.2278 34.3314 32.543 34.444 31.6346L36.0203 18.91H38.7969C39.1527 18.91 39.5003 18.8415 39.83 18.7065L41.4263 18.053C42.6676 17.5451 44.0891 17.9499 44.8834 19.0382C45.4 19.7459 45.5891 20.6442 45.4022 21.5028L42.6172 34.292C42.608 34.3337 42.572 34.363 42.5297 34.363H40.1118C39.118 34.363 38.3095 35.1789 38.3095 36.1818V38.0907C38.3095 39.0936 39.118 39.9096 40.1118 39.9096H44.8994C46.1763 39.9096 47.2754 39.0344 47.5721 37.7812L51.8712 19.6362C52.2018 18.2406 51.8889 16.7922 51.013 15.6622ZM40.2013 10.4096V12.622C40.2013 13.1311 39.8406 13.564 39.3434 13.6512L36.6123 14.1306L37.0844 10.3192H40.1118C40.1611 10.3192 40.2013 10.3597 40.2013 10.4096ZM20.3871 1.76159C20.4138 1.72852 20.4458 1.72852 20.4563 1.72852H23.8239C23.8344 1.72852 23.8662 1.72852 23.8932 1.76159C23.92 1.79454 23.9139 1.82612 23.9117 1.83649L23.3298 4.77255H20.9504L20.3685 1.83649C20.3664 1.82623 20.3602 1.79466 20.3871 1.76159ZM2.74404 12.4088H2.0976L3.34012 10.7371C3.53448 10.4754 3.84405 10.3192 4.16824 10.3192H8.96199L8.70438 19.3307L4.19564 13.1495C3.85741 12.6857 3.31477 12.4088 2.74404 12.4088ZM18.991 6.65271C19.2898 6.55211 19.6012 6.50118 19.9165 6.50118H24.3638C24.6791 6.50118 24.9903 6.55211 25.2893 6.65283L31.0507 8.59072H13.2294L18.991 6.65271ZM18.9993 30.5841L16.489 10.3192H27.791L25.281 30.584C25.2163 31.1058 24.7745 31.4993 24.2536 31.4993H20.0266C19.5055 31.4993 19.0638 31.1059 18.9993 30.5841ZM11.5155 39.9863C11.5222 39.9418 11.5594 39.9095 11.604 39.9095H17.5097C17.4279 40.11 17.3665 40.3213 17.3336 40.5428L15.4145 53.4534H9.51376L11.5155 39.9863ZM25.3183 40.7993L27.1993 53.4533H17.1467L19.0276 40.7992C19.103 40.292 19.5432 39.9095 20.0515 39.9095H24.2946C24.8027 39.9095 25.2429 40.292 25.3183 40.7993ZM32.7646 39.9863L34.7664 53.4534H28.9312L27.0121 40.543C26.9792 40.3215 26.9178 40.1101 26.8359 39.9096H32.676C32.7208 39.9095 32.758 39.9418 32.7646 39.9863ZM30.7425 38.181H13.5376V33.2278H30.7425V38.181ZM32.7444 31.4201C32.7388 31.4653 32.7007 31.4993 32.6557 31.4993H26.7977C26.8868 31.2789 26.9502 31.0444 26.9807 30.7985L29.5172 10.3192H35.3581L32.7444 31.4201ZM50.2054 19.2341L45.9063 37.3792C45.7945 37.8513 45.3805 38.181 44.8995 38.181H40.1118C40.0625 38.181 40.0224 38.1404 40.0224 38.0906V36.1816C40.0224 36.1319 40.0626 36.0914 40.1118 36.0914H42.5297C43.3696 36.0914 44.1099 35.4907 44.2901 34.663L47.0751 21.8739C47.3679 20.5289 47.0718 19.1216 46.2624 18.0131C45.0032 16.2881 42.7494 15.6458 40.7823 16.4514L39.186 17.1049C39.0618 17.1557 38.9309 17.1816 38.7969 17.1816H36.2344L36.3902 15.9241L39.6369 15.3543C40.9565 15.1227 41.9141 13.9737 41.9141 12.6221V11.2738H44.9317C45.2523 11.2738 45.5495 11.4201 45.7471 11.6749L49.6639 16.7273C50.2166 17.44 50.4138 18.3538 50.2054 19.2341Z" fill="#505050"/>
</svg>
