<svg width="58" height="54" viewBox="0 0 58 54" fill="none" xmlns="http://www.w3.org/2000/svg">
<path d="M56.9797 1.02187C55.6196 -0.340624 53.4069 -0.340624 52.0468 1.02187L44.9908 8.0915C44.6586 8.42425 44.6582 8.96401 44.9897 9.29722C45.3213 9.63043 45.8593 9.63088 46.1912 9.29824L53.2474 2.22862C53.9454 1.52924 55.0812 1.52947 55.7791 2.22862C56.1155 2.56569 56.3007 3.01644 56.3007 3.49789C56.3007 3.97934 56.1153 4.4301 55.7791 4.76705L31.9882 28.6037C31.2902 29.303 30.1545 29.303 29.4565 28.6037C29.1202 28.2668 28.9348 27.816 28.9348 27.3346C28.9348 27.0327 29.0078 26.7431 29.145 26.4858C29.1471 26.482 29.1496 26.4785 29.1517 26.4747C29.2324 26.326 29.3341 26.1879 29.4565 26.0653L42.6341 12.8624C42.9662 12.5297 42.9667 11.9899 42.6351 11.6567C42.3036 11.3235 41.7656 11.3229 41.4336 11.6557L28.5133 24.6006C28.81 22.1342 29.7629 19.9246 30.3707 18.7177C30.5968 18.2704 30.5733 17.7245 30.3094 17.2931C30.0752 16.9105 29.6892 16.682 29.2768 16.682H27.2816C26.8123 16.682 26.432 17.0637 26.432 17.5346C26.432 18.0055 26.8123 18.3872 27.2816 18.3872H28.6396C27.9144 19.9135 26.9282 22.4458 26.7504 25.2164H4.44464C4.26645 22.4416 3.28045 19.9108 2.55578 18.3872H11.001C11.1395 19.0275 11.3822 20.0312 11.7404 21.1043C12.4153 23.1291 15.0562 24.386 15.355 24.5226C15.5786 24.6248 15.8359 24.6248 16.0595 24.5226C16.3582 24.386 18.9974 23.1293 19.6753 21.1041C20.0327 20.0312 20.2747 19.0275 20.4128 18.3872H21.7403C22.2097 18.3872 22.5899 18.0055 22.5899 17.5346C22.5899 17.0637 22.2097 16.682 21.7403 16.682H19.7159C19.3026 16.682 18.9491 16.9807 18.8786 17.3895C18.8761 17.4047 18.6119 18.9179 18.0642 20.5623C17.745 21.516 16.4696 22.3765 15.7075 22.792C14.96 22.3823 13.6681 21.5125 13.3516 20.563C12.8022 18.9173 12.5371 17.404 12.5344 17.3892C12.4639 16.9805 12.1106 16.6821 11.6973 16.6821H2.01724C1.55381 16.6821 1.12923 16.923 0.881712 17.3263C0.625243 17.744 0.602927 18.2763 0.824052 18.7171C1.35613 19.7722 2.52939 22.381 2.74055 25.2165H1.78728C0.976416 25.2165 0.316665 25.8784 0.316665 26.6919V28.4854C0.316665 29.2989 0.976416 29.9608 1.78728 29.9608H2.38122C2.23542 31.0256 2.04466 32.3389 1.83577 33.7131C1.76497 34.1786 2.08363 34.6135 2.54752 34.6845C2.5909 34.6912 2.63406 34.6944 2.67677 34.6944C3.08934 34.6944 3.45139 34.3921 3.5155 33.9702C3.74093 32.4874 3.94563 31.0733 4.09618 29.9608H27.0982C27.5181 33.0595 28.2894 37.9651 29.3952 44.5679C29.7386 46.6143 29.1961 48.6655 27.9067 50.1956C26.7661 51.5492 25.2122 52.2946 23.5313 52.2946H7.66387C5.983 52.2946 4.42912 51.5492 3.28838 50.1956C1.99901 48.6655 1.4565 46.6143 1.8002 44.5677C2.11908 42.6632 2.41475 40.872 2.67881 39.2439C2.75425 38.7792 2.4399 38.341 1.9768 38.2654C1.51314 38.189 1.07712 38.5052 1.00179 38.9699C0.738185 40.5951 0.442973 42.3834 0.124653 44.2849C-0.302078 46.827 0.378177 49.3828 1.99108 51.2967C3.43881 53.0147 5.50654 54 7.66409 54H23.5315C25.6891 54 27.7567 53.0147 29.2043 51.2968C30.8172 49.3829 31.4976 46.827 31.0711 44.2851C30.033 38.0857 29.291 33.3913 28.8594 30.2933C29.4262 30.6523 30.0741 30.8327 30.7225 30.8327C31.6157 30.8327 32.5089 30.492 33.1889 29.8108L56.9797 5.9738C57.6376 5.31455 58 4.43533 58 3.49789C58 2.56046 57.6377 1.68112 56.9797 1.02187ZM2.01589 28.2552V26.9214H27.2603C27.2446 27.0575 27.2356 27.1953 27.2356 27.3344C27.2356 27.6501 27.2776 27.9589 27.3573 28.2552H2.01589Z" fill="#505050"/>
<path d="M7.66398 47.5409C7.39516 47.5409 7.14176 47.4019 6.91066 47.128C6.52267 46.6679 6.36408 46.0225 6.47577 45.3571C7.35099 40.1309 8.02422 35.9172 8.47689 32.8332C8.54531 32.3673 8.22439 31.9341 7.76016 31.8654C7.29706 31.7967 6.86422 32.1187 6.79591 32.5847C6.34493 35.6573 5.6734 39.8595 4.80012 45.0742C4.60516 46.2354 4.90173 47.3856 5.6137 48.2297C6.16663 48.8852 6.8948 49.2461 7.66398 49.2461C8.13331 49.2461 8.51359 48.8644 8.51359 48.3935C8.51359 47.9226 8.13331 47.5409 7.66398 47.5409Z" fill="#505050"/>
<path d="M30.7841 28.1616C31.2534 28.1616 31.6338 27.7799 31.6338 27.309C31.6338 26.8381 31.2534 26.4564 30.7841 26.4564C30.3149 26.4564 29.9345 26.8381 29.9345 27.309C29.9345 27.7799 30.3149 28.1616 30.7841 28.1616Z" fill="#505050"/>
</svg>
