<svg width="37" height="35" viewBox="0 0 37 35" fill="none" xmlns="http://www.w3.org/2000/svg">
<path d="M2 2H8L12.02 21.7662C12.1572 22.4458 12.5329 23.0563 13.0813 23.4908C13.6298 23.9253 14.316 24.1561 15.02 24.1429H29.6C30.304 24.1561 30.9902 23.9253 31.5387 23.4908C32.0871 23.0563 32.4628 22.4458 32.6 21.7662L35 9.38095H9.5M15.5 31.5238C15.5 32.3391 14.8284 33 14 33C13.1716 33 12.5 32.3391 12.5 31.5238C12.5 30.7085 13.1716 30.0476 14 30.0476C14.8284 30.0476 15.5 30.7085 15.5 31.5238ZM32 31.5238C32 32.3391 31.3284 33 30.5 33C29.6716 33 29 32.3391 29 31.5238C29 30.7085 29.6716 30.0476 30.5 30.0476C31.3284 30.0476 32 30.7085 32 31.5238Z" stroke="black" stroke-width="3" stroke-linecap="round" stroke-linejoin="round"/>
</svg>
