<svg width="1349" height="204" viewBox="0 0 1349 204" fill="none" xmlns="http://www.w3.org/2000/svg">
<path fill-rule="evenodd" clip-rule="evenodd" d="M-326 127.5L-248.458 106.25C-170.917 85 -15.8333 42.5 139.25 25.5C294.333 8.5 449.417 17 604.5 38.25C759.583 59.5 914.667 93.5 1069.75 123.25C1224.83 153 1379.92 178.5 1457.46 191.25L1535 204V0H1457.46C1379.92 0 1224.83 0 1069.75 0C914.667 0 759.583 0 604.5 0C449.417 0 294.333 0 139.25 0C-15.8333 0 -170.917 0 -248.458 0H-326V127.5Z" fill="#F5F5F5"/>
</svg>
