<svg width="1349" height="204" viewBox="0 0 1349 204" fill="none" xmlns="http://www.w3.org/2000/svg">
<path fill-rule="evenodd" clip-rule="evenodd" d="M-337 127.5L-259.458 106.25C-181.917 85 -26.8333 42.5 128.25 25.5C283.333 8.5 438.417 17 593.5 38.25C748.583 59.5 903.667 93.5 1058.75 123.25C1213.83 153 1368.92 178.5 1446.46 191.25L1524 204V0H1446.46C1368.92 0 1213.83 0 1058.75 0C903.667 0 748.583 0 593.5 0C438.417 0 283.333 0 128.25 0C-26.8333 0 -181.917 0 -259.458 0H-337V127.5Z" fill="#F9B300"/>
</svg>
